<svg width="656.844" height="73.499" viewBox="0 0 656.844 73.499" xmlns="http://www.w3.org/2000/svg"><g id="svgGroup" stroke-linecap="round" fill-rule="nonzero" font-size="9pt" stroke="#ffffff" stroke-width="0.5" fill="#000000" style="stroke:#ffffff;stroke-width:0.5;fill:#000000"><path d="M 656.843 30.066 L 656.843 60.132 Q 656.843 62.585 656.22 64.545 Q 655.597 66.504 654.572 67.987 A 11.199 11.199 0 0 1 652.192 70.514 Q 650.837 71.558 649.354 72.217 A 14.588 14.588 0 0 1 646.351 73.187 A 14.35 14.35 0 0 1 643.476 73.499 L 626.301 73.499 L 626.301 63.977 L 643.476 63.977 A 3.845 3.845 0 0 0 646.369 62.988 A 3.957 3.957 0 0 0 647.321 60.132 L 647.321 30.066 A 3.891 3.891 0 0 0 646.369 27.228 Q 645.417 26.257 643.476 26.257 L 626.301 26.257 A 3.655 3.655 0 0 0 623.517 27.338 Q 622.492 28.418 622.492 30.066 L 622.492 42.957 A 3.867 3.867 0 0 0 623.481 45.813 A 3.921 3.921 0 0 0 626.374 46.802 L 643.476 46.802 L 643.476 56.323 L 626.301 56.323 A 14.084 14.084 0 0 1 623.444 56.012 Q 621.943 55.701 620.459 55.042 A 13.89 13.89 0 0 1 617.621 53.339 Q 616.266 52.295 615.241 50.812 Q 614.216 49.329 613.593 47.369 Q 612.97 45.41 612.97 42.957 L 612.97 30.066 A 14.084 14.084 0 0 1 613.282 27.209 Q 613.593 25.708 614.252 24.225 A 13.89 13.89 0 0 1 615.955 21.387 Q 616.999 20.032 618.482 19.006 Q 619.965 17.981 621.906 17.358 Q 623.847 16.736 626.301 16.736 L 643.476 16.736 A 14.35 14.35 0 0 1 646.351 17.047 Q 647.87 17.358 649.354 18.018 A 13.89 13.89 0 0 1 652.192 19.72 Q 653.547 20.764 654.572 22.247 Q 655.597 23.73 656.22 25.671 Q 656.843 27.612 656.843 30.066 Z M 47.687 46.802 L 47.687 56.323 L 13.337 56.323 A 15.27 15.27 0 0 1 9.015 55.627 A 12.709 12.709 0 0 1 4.676 53.339 A 12.836 12.836 0 0 1 1.343 49.2 A 13.302 13.302 0 0 1 0.007 42.957 L 0.007 8.606 A 4.807 4.807 0 0 1 0.373 6.738 A 4.87 4.87 0 0 1 1.38 5.2 A 4.516 4.516 0 0 1 2.9 4.175 A 4.902 4.902 0 0 1 4.804 3.809 L 47.687 3.809 L 47.687 13.33 L 9.528 13.33 L 9.528 42.957 A 3.867 3.867 0 0 0 10.517 45.813 A 3.921 3.921 0 0 0 13.41 46.802 L 47.687 46.802 Z M 240.351 29.846 L 240.351 43.213 Q 240.351 45.19 239.655 47.479 A 12.749 12.749 0 0 1 237.403 51.727 A 12.557 12.557 0 0 1 233.338 55.005 Q 230.829 56.323 227.24 56.323 L 210.065 56.323 Q 208.088 56.323 205.799 55.627 A 12.749 12.749 0 0 1 201.551 53.375 A 12.557 12.557 0 0 1 198.273 49.31 Q 196.955 46.802 196.955 43.213 Q 196.955 41.235 197.651 38.928 A 12.716 12.716 0 0 1 199.903 34.662 A 12.557 12.557 0 0 1 203.968 31.384 Q 206.476 30.066 210.065 30.066 L 227.24 30.066 L 227.24 39.148 L 210.065 39.148 A 3.815 3.815 0 0 0 207.062 40.338 A 4.266 4.266 0 0 0 206 43.286 Q 206 45.154 207.227 46.198 A 4.348 4.348 0 0 0 210.138 47.241 L 227.24 47.241 Q 229.181 47.241 230.243 46.069 A 4.199 4.199 0 0 0 231.305 43.14 L 231.305 29.846 A 3.903 3.903 0 0 0 230.152 26.88 A 4.053 4.053 0 0 0 227.24 25.781 L 206.33 25.781 L 206.33 16.736 L 227.24 16.736 Q 229.218 16.736 231.507 17.432 A 12.749 12.749 0 0 1 235.755 19.684 A 12.557 12.557 0 0 1 239.032 23.749 Q 240.351 26.257 240.351 29.846 Z M 80.5 56.323 L 54.719 56.323 L 54.719 46.802 L 80.427 46.802 Q 82.367 46.802 83.356 45.813 A 3.867 3.867 0 0 0 84.345 42.957 Q 84.162 39.148 80.5 39.148 L 65.741 39.148 Q 62.592 39.148 60.395 38.049 A 10.923 10.923 0 0 1 56.824 35.303 A 10.471 10.471 0 0 1 54.847 31.75 A 11.787 11.787 0 0 1 54.242 28.198 Q 54.242 25.012 55.378 22.833 A 10.716 10.716 0 0 1 58.234 19.299 A 11.206 11.206 0 0 1 61.969 17.34 A 13.163 13.163 0 0 1 65.741 16.736 L 89.142 16.736 L 89.142 26.257 L 65.815 26.257 A 3.255 3.255 0 0 0 64.661 26.422 A 1.361 1.361 0 0 0 64.039 26.862 A 1.222 1.222 0 0 0 63.801 27.448 A 5.172 5.172 0 0 0 63.764 28.052 Q 63.801 28.638 63.984 28.967 A 1.152 1.152 0 0 0 64.441 29.443 A 1.47 1.47 0 0 0 65.064 29.608 A 12.895 12.895 0 0 0 65.741 29.626 L 80.5 29.626 Q 84.162 29.626 86.725 30.945 A 12.385 12.385 0 0 1 90.864 34.259 A 13.147 13.147 0 0 1 93.152 38.599 A 15.013 15.013 0 0 1 93.866 42.957 Q 93.866 45.41 93.244 47.369 Q 92.621 49.329 91.596 50.812 A 11.199 11.199 0 0 1 89.216 53.339 Q 87.861 54.382 86.377 55.042 A 14.588 14.588 0 0 1 83.375 56.012 A 14.35 14.35 0 0 1 80.5 56.323 Z M 434.003 56.323 L 408.222 56.323 L 408.222 46.802 L 433.93 46.802 Q 435.871 46.802 436.86 45.813 A 3.867 3.867 0 0 0 437.848 42.957 Q 437.665 39.148 434.003 39.148 L 419.245 39.148 Q 416.095 39.148 413.898 38.049 A 10.923 10.923 0 0 1 410.328 35.303 A 10.471 10.471 0 0 1 408.35 31.75 A 11.787 11.787 0 0 1 407.746 28.198 Q 407.746 25.012 408.881 22.833 A 10.716 10.716 0 0 1 411.738 19.299 A 11.206 11.206 0 0 1 415.473 17.34 A 13.163 13.163 0 0 1 419.245 16.736 L 442.646 16.736 L 442.646 26.257 L 419.318 26.257 A 3.255 3.255 0 0 0 418.165 26.422 A 1.361 1.361 0 0 0 417.542 26.862 A 1.222 1.222 0 0 0 417.304 27.448 A 5.172 5.172 0 0 0 417.267 28.052 Q 417.304 28.638 417.487 28.967 A 1.152 1.152 0 0 0 417.945 29.443 A 1.47 1.47 0 0 0 418.567 29.608 A 12.895 12.895 0 0 0 419.245 29.626 L 434.003 29.626 Q 437.665 29.626 440.229 30.945 A 12.385 12.385 0 0 1 444.367 34.259 A 13.147 13.147 0 0 1 446.656 38.599 A 15.013 15.013 0 0 1 447.37 42.957 Q 447.37 45.41 446.747 47.369 Q 446.125 49.329 445.099 50.812 A 11.199 11.199 0 0 1 442.719 53.339 Q 441.364 54.382 439.881 55.042 A 14.588 14.588 0 0 1 436.878 56.012 A 14.35 14.35 0 0 1 434.003 56.323 Z M 385.48 34.351 L 385.48 56.323 L 375.959 56.323 L 375.959 34.351 A 8.37 8.37 0 0 0 375.318 31 A 7.795 7.795 0 0 0 373.578 28.455 A 7.554 7.554 0 0 0 370.997 26.825 A 8.89 8.89 0 0 0 367.792 26.257 L 351.13 26.257 L 351.13 56.323 L 341.608 56.323 L 341.608 21.46 Q 341.608 20.471 341.974 19.611 A 4.564 4.564 0 0 1 343 18.109 A 4.87 4.87 0 0 1 344.538 17.102 A 4.807 4.807 0 0 1 346.406 16.736 L 367.865 16.736 A 19.18 19.18 0 0 1 371.656 17.139 A 18.07 18.07 0 0 1 375.611 18.439 A 19.096 19.096 0 0 1 379.346 20.709 Q 381.122 22.083 382.496 24.042 A 16.371 16.371 0 0 1 384.675 28.564 Q 385.48 31.128 385.48 34.351 Z M 138.874 46.802 L 138.874 56.323 L 113.056 56.323 A 15.27 15.27 0 0 1 108.735 55.627 A 12.709 12.709 0 0 1 104.395 53.339 A 12.836 12.836 0 0 1 101.063 49.2 A 13.302 13.302 0 0 1 99.726 42.957 L 99.726 30.066 A 14.084 14.084 0 0 1 100.037 27.209 Q 100.348 25.708 101.008 24.225 A 13.89 13.89 0 0 1 102.71 21.387 Q 103.754 20.032 105.237 19.006 Q 106.72 17.981 108.661 17.358 Q 110.602 16.736 113.056 16.736 L 138.874 16.736 L 138.874 26.257 L 113.056 26.257 A 3.891 3.891 0 0 0 110.218 27.209 A 3.943 3.943 0 0 0 109.247 30.139 L 109.247 42.957 A 3.867 3.867 0 0 0 110.236 45.813 A 3.921 3.921 0 0 0 113.129 46.802 L 138.874 46.802 Z M 531.891 42.957 L 531.891 44.788 A 13.163 13.163 0 0 1 531.287 48.56 A 11.036 11.036 0 0 1 529.31 52.295 Q 527.936 54.016 525.739 55.17 A 11.47 11.47 0 0 1 520.356 56.323 L 484.211 56.323 Q 483.185 56.323 482.306 55.957 A 4.655 4.655 0 0 1 480.787 54.95 A 4.655 4.655 0 0 1 479.78 53.43 A 4.902 4.902 0 0 1 479.413 51.526 L 479.413 8.606 A 4.807 4.807 0 0 1 479.78 6.738 A 4.87 4.87 0 0 1 480.787 5.2 A 4.516 4.516 0 0 1 482.306 4.175 A 4.902 4.902 0 0 1 484.211 3.809 L 516.071 3.809 Q 517.829 3.809 519.843 4.431 A 11.51 11.51 0 0 1 523.597 6.427 Q 525.336 7.8 526.49 9.998 A 11.47 11.47 0 0 1 527.643 15.381 L 527.643 17.175 A 19.631 19.631 0 0 1 526.801 22.614 Q 525.959 25.525 524.091 28.125 Q 525.702 29.114 527.112 30.505 Q 528.522 31.897 529.584 33.728 A 17.075 17.075 0 0 1 531.269 37.866 Q 531.891 40.173 531.891 42.957 Z M 522.37 44.714 L 522.37 42.957 A 9.058 9.058 0 0 0 521.784 39.606 Q 521.198 38.123 520.136 37.061 A 7.145 7.145 0 0 0 517.573 35.431 Q 516.071 34.863 514.203 34.863 L 492.743 34.863 L 492.743 25.269 L 509.919 25.269 Q 511.786 25.269 513.288 24.701 A 7.145 7.145 0 0 0 515.851 23.071 A 7.176 7.176 0 0 0 517.481 20.526 A 9.319 9.319 0 0 0 518.049 17.175 L 518.049 15.381 A 1.781 1.781 0 0 0 516.071 13.33 L 488.935 13.33 L 488.935 46.802 L 520.356 46.802 A 6.411 6.411 0 0 0 520.978 46.765 A 1.509 1.509 0 0 0 521.637 46.545 A 1.497 1.497 0 0 0 522.15 45.923 Q 522.37 45.483 522.37 44.714 Z M 284.333 16.736 L 284.333 26.257 L 267.707 26.257 L 267.707 56.323 L 258.075 56.323 L 258.075 26.257 L 245.698 26.257 L 245.698 16.736 L 258.075 16.736 L 258.075 3.809 L 267.707 3.809 L 267.707 16.736 L 284.333 16.736 Z M 333.515 30.066 L 333.515 42.957 Q 333.515 45.41 332.892 47.369 Q 332.27 49.329 331.244 50.812 A 11.199 11.199 0 0 1 328.864 53.339 Q 327.509 54.382 326.026 55.042 A 14.588 14.588 0 0 1 323.023 56.012 A 14.35 14.35 0 0 1 320.148 56.323 L 302.973 56.323 A 15.27 15.27 0 0 1 298.652 55.627 A 12.709 12.709 0 0 1 294.312 53.339 A 12.836 12.836 0 0 1 290.979 49.2 A 13.302 13.302 0 0 1 289.643 42.957 L 289.643 30.066 A 13.215 13.215 0 0 1 290.979 23.859 Q 292.316 21.313 294.312 19.72 A 12.709 12.709 0 0 1 298.652 17.432 A 15.27 15.27 0 0 1 302.973 16.736 L 320.148 16.736 Q 323.81 16.736 326.374 18.054 A 12.385 12.385 0 0 1 330.512 21.368 A 13.147 13.147 0 0 1 332.801 25.708 A 15.013 15.013 0 0 1 333.515 30.066 Z M 323.993 42.957 L 323.993 30.139 A 3.899 3.899 0 0 0 323.005 27.209 A 3.957 3.957 0 0 0 320.148 26.257 L 303.046 26.257 Q 301.142 26.257 300.153 27.228 Q 299.164 28.198 299.164 30.066 L 299.164 42.957 A 3.867 3.867 0 0 0 300.153 45.813 A 3.921 3.921 0 0 0 303.046 46.802 L 320.148 46.802 A 3.845 3.845 0 0 0 323.041 45.813 A 3.957 3.957 0 0 0 323.993 42.957 Z M 605.683 30.066 L 605.683 42.957 Q 605.683 45.41 605.06 47.369 Q 604.438 49.329 603.412 50.812 A 11.199 11.199 0 0 1 601.032 53.339 Q 599.677 54.382 598.194 55.042 A 14.588 14.588 0 0 1 595.191 56.012 A 14.35 14.35 0 0 1 592.316 56.323 L 575.141 56.323 A 15.27 15.27 0 0 1 570.82 55.627 A 12.709 12.709 0 0 1 566.48 53.339 A 12.836 12.836 0 0 1 563.147 49.2 A 13.302 13.302 0 0 1 561.811 42.957 L 561.811 30.066 A 13.215 13.215 0 0 1 563.147 23.859 Q 564.484 21.313 566.48 19.72 A 12.709 12.709 0 0 1 570.82 17.432 A 15.27 15.27 0 0 1 575.141 16.736 L 592.316 16.736 Q 595.978 16.736 598.542 18.054 A 12.385 12.385 0 0 1 602.68 21.368 A 13.147 13.147 0 0 1 604.969 25.708 A 15.013 15.013 0 0 1 605.683 30.066 Z M 596.161 42.957 L 596.161 30.139 A 3.899 3.899 0 0 0 595.173 27.209 A 3.957 3.957 0 0 0 592.316 26.257 L 575.214 26.257 Q 573.31 26.257 572.321 27.228 Q 571.332 28.198 571.332 30.066 L 571.332 42.957 A 3.867 3.867 0 0 0 572.321 45.813 A 3.921 3.921 0 0 0 575.214 46.802 L 592.316 46.802 A 3.845 3.845 0 0 0 595.209 45.813 A 3.957 3.957 0 0 0 596.161 42.957 Z M 556.501 46.802 L 556.501 56.323 L 552.253 56.323 Q 550.202 56.323 547.876 55.627 Q 545.551 54.932 543.537 53.339 A 12.524 12.524 0 0 1 540.204 49.2 Q 538.886 46.655 538.886 42.957 L 538.886 0 L 548.407 0 L 548.407 42.957 Q 548.407 44.714 549.506 45.758 A 3.831 3.831 0 0 0 552.253 46.802 L 556.501 46.802 Z M 190.766 30.066 L 190.766 56.323 L 181.244 56.323 L 181.244 30.066 A 3.891 3.891 0 0 0 180.292 27.228 Q 179.34 26.257 177.436 26.257 L 160.26 26.257 L 160.26 16.736 L 177.436 16.736 A 14.084 14.084 0 0 1 180.292 17.047 Q 181.794 17.358 183.277 18.018 A 13.89 13.89 0 0 1 186.115 19.72 Q 187.47 20.764 188.495 22.247 Q 189.521 23.73 190.143 25.671 Q 190.766 27.612 190.766 30.066 Z M 156.415 0 L 156.415 56.323 L 146.894 56.323 L 146.894 0 L 156.415 0 Z M 43.403 25.269 L 43.403 34.863 L 13.337 34.863 L 13.337 25.269 L 43.403 25.269 Z M 401.191 6.006 L 399.689 24.463 L 393.61 24.463 L 392.219 6.006 L 401.191 6.006 Z"/></g></svg>