<svg width="404.175" height="85.956" viewBox="0 0 404.175 85.956" xmlns="http://www.w3.org/2000/svg"><g id="svgGroup" stroke-linecap="round" fill-rule="evenodd" font-size="9pt" stroke="#000000" stroke-width="0.8" fill="#ffffff" style="stroke:#000000;stroke-width:0.8;fill:#ffffff"><path d="M 44.025 58.5 L 27.6 52.2 Q 19.65 60.825 9.975 60.825 Q 6.675 60.825 3.6 59.1 Q 0 57.15 0 54.075 Q 0 50.325 3.825 48.45 Q 6.75 47.025 10.95 47.025 A 27.445 27.445 0 0 1 16.929 47.861 A 71.507 71.507 0 0 1 22.05 49.275 Q 22.95 48.075 24.3 45.825 Q 25.65 43.575 27.525 40.35 A 104.944 104.944 0 0 0 30.276 35.076 Q 31.281 32.967 31.508 31.981 A 2.215 2.215 0 0 0 31.575 31.5 L 31.35 30.938 Q 31.125 30.375 30.75 29.325 Q 30 27.3 30 25.8 A 2.166 2.166 0 0 1 30.618 23.738 A 0.558 0.558 0 0 1 30.825 23.7 A 2.967 2.967 0 0 1 32.926 25.609 A 12.21 12.21 0 0 1 33.15 26.025 A 26.243 26.243 0 0 0 34.512 20.788 A 56.598 56.598 0 0 0 34.763 19.2 A 104.648 104.648 0 0 0 35.576 10.673 A 176.926 176.926 0 0 0 35.7 8.325 A 73.947 73.947 0 0 0 26.595 7.439 A 43.63 43.63 0 0 0 25.5 7.425 Q 21.3 7.425 18.6 8.175 Q 11.25 10.35 11.25 17.25 A 12.707 12.707 0 0 0 15.602 26.396 A 26.17 26.17 0 0 0 18.675 28.95 Q 19.05 29.1 19.05 29.325 Q 19.05 29.55 18.75 29.55 Q 18.6 29.55 18.3 29.4 A 24.725 24.725 0 0 1 11.308 23.788 A 12.334 12.334 0 0 1 8.325 15.825 Q 8.325 11.25 12 8.7 Q 15 6.525 19.875 5.925 Q 21.825 5.7 24.075 5.7 Q 26.475 5.7 29.4 5.963 Q 32.325 6.225 35.775 6.75 Q 35.85 6 35.85 5.288 L 35.85 3.825 Q 35.85 3.525 35.775 3.3 L 35.775 2.775 Q 35.775 2.325 35.925 2.325 L 36.15 2.475 Q 36.675 3.975 36.675 6.825 Q 38.85 7.125 41.888 7.688 Q 44.925 8.25 48.675 9 A 27.066 27.066 0 0 1 54.941 2.943 A 12.149 12.149 0 0 1 61.65 0.75 A 6.007 6.007 0 0 1 66.426 2.387 A 4.699 4.699 0 0 1 67.425 5.55 Q 67.425 6.45 67.05 6.45 Q 66.75 6.45 66.75 5.7 Q 66.75 4.05 65.25 3 Q 63.975 2.25 62.1 2.25 A 9.63 9.63 0 0 0 55.631 5.266 A 26.546 26.546 0 0 0 51.975 9.6 A 247.487 247.487 0 0 0 61.334 11.309 A 133.696 133.696 0 0 0 63.938 11.7 A 73.082 73.082 0 0 0 69.949 12.333 A 27.55 27.55 0 0 0 71.4 12.375 Q 74.55 12.375 76.725 11.625 A 4.097 4.097 0 0 0 80.001 8.566 A 3.084 3.084 0 0 0 80.025 8.175 Q 80.025 7.5 79.725 7.013 Q 79.425 6.525 79.425 6.375 Q 79.425 6.15 79.65 6.15 Q 80.25 6.15 80.663 7.463 Q 81.075 8.775 81.075 9.525 Q 81.075 14.925 72.375 14.925 A 38.9 38.9 0 0 1 67.395 14.5 Q 64.414 14.094 60.277 13.3 A 324.024 324.024 0 0 1 50.85 11.325 A 47.28 47.28 0 0 0 49.509 13.706 A 214.521 214.521 0 0 0 47.438 17.7 A 582.755 582.755 0 0 0 44.634 23.306 A 1231.188 1231.188 0 0 0 41.1 30.525 A 20.752 20.752 0 0 1 46.198 29.623 A 57.657 57.657 0 0 1 50.55 29.475 Q 59.4 29.475 64.575 31.275 Q 65.025 31.35 65.025 31.575 Q 65.025 31.875 64.65 31.875 Q 63.75 31.875 61.8 31.65 Q 59.925 31.425 58.95 31.425 Q 55.875 31.425 52.988 31.65 Q 50.1 31.875 47.475 32.4 A 22.67 22.67 0 0 0 41.811 34.064 A 4.218 4.218 0 0 0 38.85 37.65 Q 38.85 38.25 39.3 39.15 L 39.3 39.3 Q 38.475 39.3 37.65 37.35 Q 32.925 45.975 28.5 51.225 L 44.25 55.875 Q 49.05 57.3 53.063 57.938 Q 57.075 58.575 60.3 58.575 Q 64.35 58.575 67.5 57.3 Q 71.55 55.5 71.55 51.9 Q 71.55 49.125 69.225 45.375 A 442.708 442.708 0 0 0 67.503 42.505 Q 66.922 41.549 66.901 41.549 A 0.001 0.001 0 0 0 66.9 41.55 Q 66.9 41.475 66.975 41.475 Q 67.275 41.475 67.875 42 Q 72.75 46.05 72.75 51.675 Q 72.75 56.625 68.925 59.7 Q 65.4 62.55 60.375 62.55 A 29.033 29.033 0 0 1 53.729 61.6 Q 49.555 60.588 44.025 58.5 Z M 294.45 34.2 L 294.225 34.125 Q 289.575 33.75 285.525 30.3 A 11.116 11.116 0 0 1 281.133 22.818 A 8.986 8.986 0 0 1 281.1 22.05 Q 281.1 18.675 283.875 15.9 Q 288.6 11.025 297 8.7 Q 303.975 6.675 312 6.675 Q 312.15 5.1 312.488 3.413 Q 312.825 1.725 313.275 0 A 1.985 1.985 0 0 1 313.574 1.525 A 16.569 16.569 0 0 1 313.575 1.725 Q 313.575 2.7 313.425 3.938 Q 313.275 5.175 312.975 6.675 Q 315.825 6.75 318.563 7.013 Q 321.3 7.275 323.85 7.875 A 14.622 14.622 0 0 1 331.824 3.758 A 10.633 10.633 0 0 1 333.15 3.675 Q 335.925 3.675 337.8 5.625 Q 339.675 7.575 339.675 10.35 Q 339.675 11.4 339.3 11.4 A 1.556 1.556 0 0 1 338.892 10.219 A 20.082 20.082 0 0 1 338.775 9.3 A 4.075 4.075 0 0 0 333.935 5.925 A 11.52 11.52 0 0 0 333.9 5.925 A 10.172 10.172 0 0 0 327.923 8.347 A 20.581 20.581 0 0 0 327.375 8.775 Q 332.025 10.2 335.325 12.825 Q 339.45 16.05 339.45 20.25 A 8.636 8.636 0 0 1 334.222 27.949 A 17.782 17.782 0 0 1 333.6 28.275 Q 329.1 30.6 323.4 30.9 A 44.686 44.686 0 0 1 331.917 35.908 Q 336.16 39.187 337.834 42.901 A 12.097 12.097 0 0 1 338.925 47.925 Q 338.925 52.575 335.025 55.725 Q 331.2 58.875 326.4 58.875 Q 319.2 58.875 313.65 57.075 L 301.8 52.2 Q 299.7 54.675 297.713 56.363 Q 295.725 58.05 293.775 58.875 Q 289.95 60.675 283.425 60.675 Q 280.575 60.675 277.8 58.725 Q 274.8 56.625 274.8 53.775 Q 274.8 50.25 278.475 48.45 Q 281.25 47.025 285.225 47.025 Q 287.325 47.025 289.65 47.4 Q 291.975 47.775 294.6 48.525 Q 300.075 41.925 304.2 31.875 Q 303.675 30.15 303.413 28.838 Q 303.15 27.525 303.15 26.55 A 3.614 3.614 0 0 1 303.728 24.029 A 0.685 0.685 0 0 1 304.2 23.85 A 2.62 2.62 0 0 1 306.172 25.924 A 10.696 10.696 0 0 1 306.3 26.25 A 39.901 39.901 0 0 0 308.62 20.248 Q 310.16 15.318 311.7 7.875 Q 296.1 8.4 287.775 16.95 Q 284.775 19.95 284.775 23.775 Q 284.775 26.775 286.8 29.25 Q 288.6 31.5 291.6 32.7 Q 292.05 32.85 292.8 33.075 Q 293.55 33.3 294.525 33.525 Q 294.975 33.6 294.975 33.825 Q 294.975 34.2 294.45 34.2 Z M 390.75 54.675 L 388.275 48.45 A 12.659 12.659 0 0 1 382.896 51.46 A 6.254 6.254 0 0 1 381.6 51.6 Q 378.9 51.6 378.9 48.675 A 14.352 14.352 0 0 1 381.517 41.021 A 33.015 33.015 0 0 1 385.05 36.525 Q 384.975 35.85 384.938 35.213 Q 384.9 34.575 384.9 33.975 Q 384.9 29.4 386.625 26.1 Q 388.8 21.9 392.925 21.9 Q 393.375 21.9 393.788 21.938 Q 394.2 21.975 394.575 22.05 Q 396.3 22.425 397.2 24.825 A 9.526 9.526 0 0 1 397.848 28.083 A 6.382 6.382 0 0 1 397.8 28.875 A 8.538 8.538 0 0 0 402.125 23.815 A 6.103 6.103 0 0 0 402.3 22.35 Q 402.3 21 402.6 21 Q 403.35 21 403.35 23.625 A 8.285 8.285 0 0 1 398.001 31.179 A 16.987 16.987 0 0 1 397.65 31.35 Q 397.2 35.25 394.875 39.9 A 25.002 25.002 0 0 1 390.825 46.058 A 12.568 12.568 0 0 1 389.625 47.175 Q 390.375 48.375 391.388 50.25 Q 392.4 52.125 393.75 54.675 A 76.189 76.189 0 0 1 400.688 55.026 A 29.962 29.962 0 0 1 402.975 55.35 Q 404.175 55.575 404.175 55.95 Q 404.175 56.475 402.975 56.475 Q 402.3 56.475 401.25 56.4 Q 400.2 56.325 398.775 56.175 Q 396 55.95 394.425 55.95 A 23.305 23.305 0 0 1 396.87 63.221 A 12.374 12.374 0 0 1 396.975 64.8 A 15.094 15.094 0 0 1 391.536 76.051 A 32.457 32.457 0 0 1 385.725 80.25 Q 375.975 85.95 366.45 85.95 A 27.851 27.851 0 0 1 358.985 85.096 A 7.476 7.476 0 0 1 352.575 77.625 Q 352.575 77.1 352.613 76.613 Q 352.65 76.125 352.725 75.6 Q 353.325 72.75 356.775 68.7 A 38.731 38.731 0 0 1 377.796 56.27 A 61.49 61.49 0 0 1 390.75 54.675 Z M 137.925 4.5 L 133.575 12.675 Q 128.4 22.425 124.8 30.225 A 185.327 185.327 0 0 0 120.244 40.87 A 114.558 114.558 0 0 0 119.1 43.95 A 112.65 112.65 0 0 0 125.33 37.26 A 68.357 68.357 0 0 0 126.038 36.413 Q 128.775 33.075 130.2 30.525 Q 130.35 30.15 130.763 29.438 Q 131.175 28.725 132.225 28.725 Q 133.125 28.725 133.125 29.325 Q 133.125 29.7 133.013 30.375 Q 132.9 31.05 132.75 32.1 Q 132.6 33.075 132.525 33.788 Q 132.45 34.5 132.45 35.025 Q 132.45 39.6 133.8 44.25 A 13.943 13.943 0 0 0 136.138 49.125 A 3.848 3.848 0 0 0 139.125 50.7 Q 139.8 50.7 140.625 50.325 Q 141.45 49.95 141.675 49.95 Q 142.275 49.95 142.275 50.55 Q 142.275 51.3 140.775 51.9 Q 139.2 52.5 138.375 52.5 A 6.425 6.425 0 0 1 133.384 49.429 A 19.792 19.792 0 0 1 131.55 46.425 A 24.022 24.022 0 0 1 128.928 36.521 A 17.138 17.138 0 0 1 128.925 36.225 L 128.925 35.55 Q 128.925 35.25 129 34.95 A 39.302 39.302 0 0 1 125.604 39.052 A 79.072 79.072 0 0 1 124.95 39.75 A 160.598 160.598 0 0 1 119.249 45.427 A 256.991 256.991 0 0 1 118.275 46.35 Q 117.9 47.625 117.563 48.825 Q 117.225 50.025 117 51.075 L 116.625 52.95 Q 116.175 54.975 114.15 54.975 A 0.589 0.589 0 0 1 113.379 54.534 A 0.659 0.659 0 0 1 113.4 54.375 Q 113.175 53.925 112.35 52.425 Q 111.45 51.15 111.45 50.85 Q 111.45 50.25 111.975 50.175 Q 112.725 49.725 113.55 49.05 Q 114.375 48.375 115.35 47.55 A 236.537 236.537 0 0 1 118.911 37.922 Q 123.349 26.603 130.543 10.737 A 975.786 975.786 0 0 1 131.025 9.675 Q 131.325 8.925 131.813 7.875 Q 132.3 6.825 132.975 5.4 Q 134.025 3.675 136.95 3.675 Q 138.075 3.675 138.075 4.2 Q 138.075 4.35 137.925 4.5 Z M 201.675 52.5 L 201.675 52.35 Q 201.975 51.3 202.313 49.725 L 203.1 46.05 Q 203.55 43.95 204.225 40.763 Q 204.9 37.575 205.875 33.375 L 204.975 31.2 Q 204.6 30.225 204.413 29.775 L 204.225 29.325 Q 204.225 28.8 205.5 28.35 Q 209.25 26.925 210.3 26.925 Q 211.425 26.925 211.425 27.6 Q 211.35 27.375 207.6 37.2 L 207.6 37.875 A 2.615 2.615 0 0 1 207.126 39.92 A 0.383 0.383 0 0 1 206.925 39.975 Q 206.85 39.975 206.7 39.75 Q 206.1 41.625 205.538 43.313 Q 204.975 45 204.525 46.65 Q 206.175 43.95 207.938 41.475 Q 209.7 39 211.575 36.825 A 30.776 30.776 0 0 1 216.42 32.142 A 7.859 7.859 0 0 1 220.875 30.3 Q 222.6 30.3 222.6 31.65 Q 222.6 32.1 222.375 32.775 A 195.637 195.637 0 0 1 220.79 38.947 A 351.351 351.351 0 0 1 220.725 39.188 Q 219.675 43.05 218.25 48.15 Q 222.6 44.925 225 41.25 Q 225.375 40.8 225.525 40.8 Q 225.75 40.8 225.75 41.1 Q 225.75 41.25 225.525 41.625 Q 222.225 47.475 217.5 50.925 Q 217.2 51.375 216.525 51.375 Q 216 51.375 216 50.775 Q 216 50.625 216.225 49.388 Q 216.45 48.15 216.825 45.9 Q 217.2 44.25 217.5 42.675 Q 217.8 41.1 218.1 39.45 Q 218.625 35.775 218.775 33 Q 217.125 33.75 215.213 35.438 Q 213.3 37.125 210.975 39.675 Q 208.875 42 207.338 44.063 Q 205.8 46.125 204.825 47.925 Q 203.775 49.95 203.25 52.275 A 3.889 3.889 0 0 1 203.104 52.743 A 0.906 0.906 0 0 1 202.35 53.475 Q 201.675 53.475 201.675 52.5 Z M 320.925 29.85 L 322.425 29.85 L 323.775 29.7 Q 324.45 29.625 325.05 29.55 Q 329.475 28.725 332.25 26.55 Q 335.7 24 335.7 19.95 Q 335.7 16.275 332.775 13.35 Q 330.225 10.95 326.4 9.675 A 33.625 33.625 0 0 0 320.689 16.876 A 63.944 63.944 0 0 0 317.775 22.2 L 310.8 37.5 A 81.982 81.982 0 0 1 305.955 46.618 A 40.456 40.456 0 0 1 302.7 51.15 L 314.025 55.2 Q 320.4 57.3 325.875 57.3 A 16.211 16.211 0 0 0 332.192 56.268 A 5.887 5.887 0 0 0 336 50.4 A 14.096 14.096 0 0 0 330.346 39.426 A 32.794 32.794 0 0 0 323.475 35.1 Q 322.725 34.8 321.6 34.313 Q 320.475 33.825 318.975 33.15 Q 318.75 33 318.75 32.4 Q 318.75 30.3 320.925 29.85 Z M 166.875 37.875 L 162.825 36.225 Q 161.85 35.775 161.85 34.65 Q 161.85 33.45 162.9 33.225 L 164.925 33.225 Q 168.9 33.225 173.25 32.325 L 173.325 32.175 L 178.275 21.225 L 180.45 16.2 Q 181.05 14.85 183.375 14.85 Q 184.95 14.85 184.95 15.6 A 9.381 9.381 0 0 1 184.419 16.968 Q 183.907 18.16 182.901 20.381 A 579.673 579.673 0 0 1 182.175 21.975 A 242.088 242.088 0 0 1 180.206 26.251 Q 179.418 27.907 179.131 28.357 A 0.92 0.92 0 0 1 179.025 28.5 L 177.75 29.7 L 176.85 31.5 A 494.407 494.407 0 0 0 180.053 30.413 A 1540.672 1540.672 0 0 0 180.713 30.187 A 3395.593 3395.593 0 0 0 186.738 28.116 A 6444.935 6444.935 0 0 0 187.8 27.75 Q 188.1 27.675 188.325 27.638 Q 188.55 27.6 188.625 27.6 Q 188.925 27.6 188.925 27.75 A 1.313 1.313 0 0 1 188.133 28.533 Q 186.093 29.728 178.799 31.887 A 241.262 241.262 0 0 1 176.25 32.625 Q 174.75 35.55 173.7 37.613 Q 172.65 39.675 172.125 40.95 A 24.836 24.836 0 0 0 170.176 49.751 A 16.302 16.302 0 0 0 170.175 49.875 Q 170.175 52.35 171.825 52.35 A 6.97 6.97 0 0 0 175.58 50.747 A 22.32 22.32 0 0 0 177.15 49.5 L 180.525 46.575 Q 180.75 46.575 180.75 46.8 Q 180.75 47.025 180.525 47.475 Q 179.325 49.275 176.7 51.3 A 13.015 13.015 0 0 1 172.952 53.531 A 3.29 3.29 0 0 1 171.975 53.7 Q 168.228 53.7 168.225 49.133 A 10.814 10.814 0 0 1 168.225 49.125 A 23.854 23.854 0 0 1 169.4 42.435 A 45.616 45.616 0 0 1 169.875 40.95 Q 169.575 39.975 168.863 39.188 Q 168.15 38.4 166.875 37.875 Z M 368.475 1.35 L 364.425 10.35 L 362.775 13.95 Q 362.25 14.25 361.425 15.075 L 360.638 16.65 Q 359.85 18.225 358.2 21.3 Q 349.664 37.888 348.018 45.191 A 13.837 13.837 0 0 0 347.625 48.15 Q 347.625 50.625 349.275 50.625 A 7.084 7.084 0 0 0 353.384 48.779 A 17.365 17.365 0 0 0 353.7 48.525 Q 356.325 46.35 356.175 46.35 Q 356.475 46.35 356.475 46.65 Q 356.475 46.95 356.175 47.25 A 11.982 11.982 0 0 1 351.753 51.363 A 5.475 5.475 0 0 1 349.425 51.9 Q 345.675 51.9 345.675 48.075 A 21.361 21.361 0 0 1 346.407 43.274 Q 347.349 39.422 349.5 33.6 A 10.977 10.977 0 0 1 347.42 35.925 A 1.02 1.02 0 0 1 346.875 36.15 Q 346.65 36.15 346.65 35.925 Q 346.65 35.85 348.6 33.3 Q 349.575 32.025 350.138 31.313 Q 350.7 30.6 350.775 30.375 Q 351.15 29.325 351.825 27.675 Q 352.5 26.025 353.4 23.925 Q 355.05 20.175 356.775 16.388 Q 358.5 12.6 360.375 8.775 Q 360.975 7.5 361.913 5.7 Q 362.85 3.9 364.125 1.575 Q 364.95 0.3 367.2 0.3 Q 368.55 0.3 368.55 0.975 Q 368.55 1.2 368.475 1.35 Z M 155.325 52.95 Q 153.3 52.95 152.175 50.85 Q 151.275 49.125 151.275 46.875 Q 151.275 45.75 151.463 44.363 Q 151.65 42.975 152.025 41.325 Q 148.078 50.097 143.921 51.541 A 4.987 4.987 0 0 1 142.275 51.825 Q 139.2 51.825 139.2 47.85 Q 139.2 41.475 145.35 34.65 Q 151.575 27.675 157.725 27.675 Q 160.65 27.675 160.65 30.225 A 7.173 7.173 0 0 1 157.877 35.344 A 18.226 18.226 0 0 1 156.45 36.525 Q 154.275 41.925 154.275 47.625 A 7.107 7.107 0 0 0 154.919 51.167 A 1.391 1.391 0 0 0 156.15 51.9 A 4.696 4.696 0 0 0 158.902 50.34 Q 160.441 48.916 162.497 46.19 A 87.775 87.775 0 0 0 165.15 42.45 Q 165.6 41.85 165.825 41.85 Q 166.05 41.85 166.05 42.15 Q 166.05 42.525 165.75 42.9 A 58.35 58.35 0 0 1 161.208 48.925 Q 159.04 51.378 157.33 52.336 A 4.168 4.168 0 0 1 155.325 52.95 Z M 313.35 7.875 L 312.75 7.875 A 127.467 127.467 0 0 1 310.166 17.651 A 229.34 229.34 0 0 1 307.575 25.65 Q 308.625 25.05 309.15 25.05 Q 309.75 25.05 309.75 25.8 Q 309.75 27.9 304.875 32.4 Q 302.775 37.2 300.413 41.288 Q 298.05 45.375 295.275 48.75 Q 296.325 49.05 297.413 49.425 Q 298.5 49.8 299.55 50.175 Q 302.625 46.8 306.525 38.475 Q 308.325 34.575 310.125 30.713 Q 311.925 26.85 313.8 22.95 Q 316.2 18.15 318.488 14.625 Q 320.775 11.1 322.95 8.775 Q 318.15 7.875 313.35 7.875 Z M 23.025 49.65 L 24.6 50.175 A 36.53 36.53 0 0 0 28.049 45.573 A 74.698 74.698 0 0 0 28.613 44.7 A 96.004 96.004 0 0 0 32.89 37.103 A 157.479 157.479 0 0 0 33.6 35.7 L 40.05 22.875 Q 41.925 19.125 43.8 16.088 Q 45.675 13.05 47.475 10.575 Q 44.25 9.825 41.55 9.3 Q 38.85 8.775 36.675 8.475 Q 36.45 17.025 34.35 25.425 Q 35.4 24.825 35.925 24.825 Q 36.525 24.825 36.525 25.8 Q 36.525 27.975 32.4 31.875 Q 30.975 35.625 28.613 40.088 Q 26.25 44.55 23.025 49.65 Z M 96.9 54 Q 91.725 54 91.725 48.15 A 22.44 22.44 0 0 1 95.315 36.534 A 33.46 33.46 0 0 1 95.55 36.15 A 17.561 17.561 0 0 1 100.682 30.607 A 8.605 8.605 0 0 1 105.375 29.175 Q 106.2 29.175 106.2 29.475 A 2.931 2.931 0 0 1 105.052 30.386 A 26.46 26.46 0 0 1 104.7 30.6 Q 101.025 32.85 98.175 37.425 A 19.121 19.121 0 0 0 95.227 44.575 A 10.776 10.776 0 0 0 95.1 46.2 A 7.167 7.167 0 0 0 96.41 50.962 A 4.087 4.087 0 0 0 99.675 52.275 Q 102.525 52.275 105.975 50.025 Q 107.475 49.05 108.788 47.963 Q 110.1 46.875 111.15 45.6 Q 111.525 45.15 112.05 44.475 Q 112.575 43.8 113.175 42.825 Q 113.85 41.7 114.225 41.7 L 114.375 41.85 Q 114.375 42.075 113.7 43.125 Q 112.425 45.075 110.625 46.913 Q 108.825 48.75 106.425 50.4 A 20.326 20.326 0 0 1 99.134 53.768 A 11.264 11.264 0 0 1 96.9 54 Z M 366.375 84.825 A 25.964 25.964 0 0 0 378.523 81.491 A 44.067 44.067 0 0 0 383.625 78.3 Q 393.375 71.325 393.375 63.525 A 14.217 14.217 0 0 0 392.555 59.505 A 49.325 49.325 0 0 0 391.275 56.025 Q 385.35 56.325 380.213 57.413 Q 375.075 58.5 370.65 60.375 A 29.572 29.572 0 0 0 360.119 67.545 A 21.737 21.737 0 0 0 355.875 74.475 Q 355.35 75.75 355.35 77.025 Q 355.35 80.7 359.175 82.95 Q 362.4 84.825 366.375 84.825 Z M 89.025 28.5 L 88.425 28.5 Q 86.775 28.5 85.5 29.475 Q 84.225 30.45 84.225 32.1 Q 84.225 32.7 84.45 33.375 L 86.25 39.375 Q 86.85 41.175 87.075 42.713 Q 87.3 44.25 87.3 45.525 Q 89.325 45.225 90.75 44.025 A 13.089 13.089 0 0 0 92.784 41.564 A 39.288 39.288 0 0 0 93.15 41.025 Q 93.375 40.725 93.6 40.725 Q 93.825 40.725 93.825 41.025 Q 93.825 41.1 93.675 41.55 Q 91.125 45.825 87.375 46.575 Q 87.15 49.2 85.8 50.925 Q 84.375 52.8 81.75 52.8 Q 78.225 52.8 75.375 49.875 Q 72.6 46.875 72.6 43.35 A 2.051 2.051 0 0 1 73.539 41.056 A 1.062 1.062 0 0 1 73.8 41.025 Q 74.55 41.025 75.3 42.15 A 79.362 79.362 0 0 1 79.73 33.516 A 124.755 124.755 0 0 1 81.675 30.3 A 7.838 7.838 0 0 1 87.011 26.306 A 5.913 5.913 0 0 1 87.825 26.25 Q 88.575 26.25 89.588 26.775 Q 90.6 27.3 90.6 28.05 Q 90.6 28.575 89.625 28.575 L 89.4 28.575 Q 89.25 28.575 89.025 28.5 Z M 257.1 28.5 L 256.5 28.5 Q 254.85 28.5 253.575 29.475 Q 252.3 30.45 252.3 32.1 Q 252.3 32.7 252.525 33.375 L 254.325 39.375 Q 254.925 41.175 255.15 42.713 Q 255.375 44.25 255.375 45.525 Q 257.4 45.225 258.825 44.025 A 13.089 13.089 0 0 0 260.859 41.564 A 39.288 39.288 0 0 0 261.225 41.025 Q 261.45 40.725 261.675 40.725 Q 261.9 40.725 261.9 41.025 Q 261.9 41.1 261.75 41.55 Q 259.2 45.825 255.45 46.575 Q 255.225 49.2 253.875 50.925 Q 252.45 52.8 249.825 52.8 Q 246.3 52.8 243.45 49.875 Q 240.675 46.875 240.675 43.35 A 2.051 2.051 0 0 1 241.614 41.056 A 1.062 1.062 0 0 1 241.875 41.025 Q 242.625 41.025 243.375 42.15 A 79.362 79.362 0 0 1 247.805 33.516 A 124.755 124.755 0 0 1 249.75 30.3 A 7.838 7.838 0 0 1 255.086 26.306 A 5.913 5.913 0 0 1 255.9 26.25 Q 256.65 26.25 257.663 26.775 Q 258.675 27.3 258.675 28.05 Q 258.675 28.575 257.7 28.575 L 257.475 28.575 Q 257.325 28.575 257.1 28.5 Z M 193.725 47.025 L 196.05 47.025 Q 195.075 47.625 194.325 47.625 Q 194.175 47.625 193.913 47.55 Q 193.65 47.475 193.5 47.475 A 0.014 0.014 0 0 1 193.508 47.489 Q 193.508 47.673 190.875 49.95 A 10.206 10.206 0 0 1 186.716 52.338 A 3.821 3.821 0 0 1 185.925 52.425 A 3.006 3.006 0 0 1 183 48.675 A 15.891 15.891 0 0 1 186.238 39.6 A 25.721 25.721 0 0 1 186.45 39.3 Q 185.25 36.375 185.25 33.075 Q 185.25 29.85 186.525 27.45 A 8.338 8.338 0 0 1 190.778 23.058 A 5.421 5.421 0 0 1 192.675 22.725 A 4.974 4.974 0 0 1 197.401 27.012 A 18.597 18.597 0 0 1 198.075 30.675 Q 199.95 30.75 200.888 31.838 Q 201.825 32.925 201.825 34.875 Q 201.825 36.375 201.488 37.013 Q 201.15 37.65 200.85 37.65 Q 200.55 37.65 200.55 37.35 Q 200.55 36.975 200.663 36.45 Q 200.775 35.925 200.775 35.175 Q 200.775 34.125 200.025 33.563 Q 199.275 33 198.15 33 Q 197.25 42.15 193.725 47.025 Z M 369.6 47.025 L 371.925 47.025 Q 370.95 47.625 370.2 47.625 Q 370.05 47.625 369.788 47.55 Q 369.525 47.475 369.375 47.475 A 0.014 0.014 0 0 1 369.383 47.489 Q 369.383 47.673 366.75 49.95 A 10.206 10.206 0 0 1 362.591 52.338 A 3.821 3.821 0 0 1 361.8 52.425 A 3.006 3.006 0 0 1 358.875 48.675 A 15.891 15.891 0 0 1 362.113 39.6 A 25.721 25.721 0 0 1 362.325 39.3 Q 361.125 36.375 361.125 33.075 Q 361.125 29.85 362.4 27.45 A 8.338 8.338 0 0 1 366.653 23.058 A 5.421 5.421 0 0 1 368.55 22.725 A 4.974 4.974 0 0 1 373.276 27.012 A 18.597 18.597 0 0 1 373.95 30.675 Q 375.825 30.75 376.763 31.838 Q 377.7 32.925 377.7 34.875 Q 377.7 36.375 377.363 37.013 Q 377.025 37.65 376.725 37.65 Q 376.425 37.65 376.425 37.35 Q 376.425 36.975 376.538 36.45 Q 376.65 35.925 376.65 35.175 Q 376.65 34.125 375.9 33.563 Q 375.15 33 374.025 33 Q 373.125 42.15 369.6 47.025 Z M 283.95 58.95 Q 287.85 58.95 292.275 56.625 A 17.313 17.313 0 0 0 298.578 51.654 A 10.915 10.915 0 0 0 298.875 51.225 Q 297.9 50.7 296.888 50.25 Q 295.875 49.8 294.675 49.425 A 20.902 20.902 0 0 1 290.253 53.619 A 6.026 6.026 0 0 1 287.025 54.75 Q 285.45 54.75 285.45 53.85 Q 285.45 53.475 285.9 53.475 Q 286.05 53.475 286.5 53.588 Q 286.95 53.7 287.175 53.7 A 7.194 7.194 0 0 0 291.513 51.702 A 23.506 23.506 0 0 0 294 49.275 Q 289.2 47.7 284.85 47.7 Q 281.775 47.7 279.3 48.75 Q 276.15 50.1 276.15 52.95 A 5.139 5.139 0 0 0 278.775 57.375 Q 281.175 58.95 283.95 58.95 Z M 24.075 51.075 L 22.35 50.475 Q 22.125 50.775 21.75 51.15 L 20.85 52.05 Q 17.775 55.125 14.925 56.625 Q 14.85 56.7 14.7 56.7 A 0.115 0.115 0 0 1 14.625 56.55 Q 14.625 56.25 15.225 55.8 L 18.45 53.175 Q 19.5 52.35 20.138 51.563 Q 20.775 50.775 21.3 50.025 Q 18.45 49.05 15.863 48.6 Q 13.275 48.15 11.1 48.15 Q 7.8 48.15 5.175 49.275 Q 1.875 50.775 1.875 53.775 Q 1.875 56.4 4.35 57.9 Q 6.525 59.25 9.225 59.25 A 15.981 15.981 0 0 0 16.329 57.24 A 29.811 29.811 0 0 0 17.475 56.625 Q 19.65 55.35 21.338 53.963 Q 23.025 52.575 24.075 51.075 Z M 150.525 38.4 L 152.85 37.05 Q 153 35.775 154.425 33.75 A 3.959 3.959 0 0 1 157.025 31.653 A 1.562 1.562 0 0 1 157.125 31.65 A 0.523 0.523 0 0 1 157.575 32.325 Q 157.575 32.85 157.2 33.975 Q 158.4 32.325 158.4 30.75 Q 158.4 29.025 156.825 29.025 A 7.666 7.666 0 0 0 152.417 30.94 Q 150.293 32.564 147.739 35.564 A 59.12 59.12 0 0 0 147 36.45 A 41.688 41.688 0 0 0 142.665 42.517 Q 140.993 45.487 140.928 47.604 A 5.538 5.538 0 0 0 140.925 47.775 Q 140.925 49.5 142.575 49.5 A 6.492 6.492 0 0 0 147.364 46.714 Q 149.58 44.091 151.725 39 Q 151.125 39.15 150.638 39.263 Q 150.15 39.375 149.775 39.375 Q 149.475 39.375 149.475 39.15 Q 149.475 38.775 150.525 38.4 Z M 108.45 36.75 Q 107.475 36.75 107.475 35.625 Q 107.475 35.175 107.925 33.6 Q 108.45 32.025 108.45 30.975 Q 108.45 27.6 105.75 27.6 Q 104.325 27.6 102.3 28.725 A 77.53 77.53 0 0 1 100.289 29.709 A 0.943 0.943 0 0 1 100.125 29.775 Q 99.825 29.775 99.825 29.55 A 2.132 2.132 0 0 1 101.47 28.059 A 13.053 13.053 0 0 1 102.75 27.6 Q 105 26.85 106.575 26.85 Q 110.625 26.85 110.625 31.725 Q 110.625 33.075 110.1 34.65 A 2.926 2.926 0 0 1 108.619 36.731 A 0.77 0.77 0 0 1 108.45 36.75 Z M 193.626 32.31 A 23.85 23.85 0 0 0 187.275 38.475 Q 187.05 37.2 187.05 35.775 Q 187.05 32.25 188.325 29.1 Q 190.35 24.375 192.75 24.375 A 2.94 2.94 0 0 1 195.158 26.09 A 16.411 16.411 0 0 1 196.875 30.825 A 13.473 13.473 0 0 0 193.626 32.31 Z M 369.501 32.31 A 23.85 23.85 0 0 0 363.15 38.475 Q 362.925 37.2 362.925 35.775 Q 362.925 32.25 364.2 29.1 Q 366.225 24.375 368.625 24.375 A 2.94 2.94 0 0 1 371.033 26.09 A 16.411 16.411 0 0 1 372.75 30.825 A 13.473 13.473 0 0 0 369.501 32.31 Z M 84.225 46.5 Q 84.3 46.2 84.3 45.975 L 84.3 45.45 Q 84.3 44.475 83.963 42.788 Q 83.625 41.1 83.025 38.625 A 37.869 37.869 0 0 1 82.224 34.424 Q 82.137 33.68 82.137 33.128 A 4.365 4.365 0 0 1 82.2 32.325 A 18.916 18.916 0 0 0 80.02 35.389 Q 78.314 38.189 75.825 43.125 Q 77.25 43.875 78.263 44.438 Q 79.275 45 79.875 45.3 Q 81.075 45.825 82.163 46.125 Q 83.25 46.425 84.225 46.5 Z M 252.3 46.5 Q 252.375 46.2 252.375 45.975 L 252.375 45.45 Q 252.375 44.475 252.038 42.788 Q 251.7 41.1 251.1 38.625 A 37.869 37.869 0 0 1 250.299 34.424 Q 250.212 33.68 250.212 33.128 A 4.365 4.365 0 0 1 250.275 32.325 A 18.916 18.916 0 0 0 248.095 35.389 Q 246.389 38.189 243.9 43.125 Q 245.325 43.875 246.338 44.438 Q 247.35 45 247.95 45.3 Q 249.15 45.825 250.238 46.125 Q 251.325 46.425 252.3 46.5 Z M 191.325 46.65 A 12.658 12.658 0 0 0 193.836 42.892 A 37.21 37.21 0 0 0 195 40.2 A 34.484 34.484 0 0 0 196.72 34.834 A 9.597 9.597 0 0 0 196.95 32.925 A 8.282 8.282 0 0 0 193.818 34.459 A 33.712 33.712 0 0 0 191.775 36 A 24.188 24.188 0 0 0 188.221 39.346 A 6.113 6.113 0 0 0 187.5 40.425 A 16.566 16.566 0 0 0 189.394 45.067 A 3.388 3.388 0 0 0 191.325 46.65 Z M 367.2 46.65 A 12.658 12.658 0 0 0 369.711 42.892 A 37.21 37.21 0 0 0 370.875 40.2 A 34.484 34.484 0 0 0 372.595 34.834 A 9.597 9.597 0 0 0 372.825 32.925 A 8.282 8.282 0 0 0 369.693 34.459 A 33.712 33.712 0 0 0 367.65 36 A 24.188 24.188 0 0 0 364.096 39.346 A 6.113 6.113 0 0 0 363.375 40.425 A 16.566 16.566 0 0 0 365.269 45.067 A 3.388 3.388 0 0 0 367.2 46.65 Z M 232.05 29.175 Q 231.975 29.175 231.975 29.1 Q 231.975 29.4 234.15 25.5 A 17.17 17.17 0 0 0 236.245 19.954 A 7.386 7.386 0 0 0 236.325 18.9 Q 236.325 18.525 236.1 17.813 Q 235.875 17.1 235.875 16.725 Q 235.875 16.125 236.325 15.3 Q 236.775 14.475 237.375 14.475 Q 238.275 14.475 239.25 15.825 Q 239.325 16.05 239.363 16.313 Q 239.4 16.575 239.4 16.95 A 10.287 10.287 0 0 1 238.019 21.369 A 27.619 27.619 0 0 1 237.225 22.8 Q 236.85 23.475 236.213 24.375 Q 235.575 25.275 234.75 26.325 Q 232.575 29.175 232.05 29.175 Z M 389.025 45.9 A 12.729 12.729 0 0 0 391.536 42.178 A 36.744 36.744 0 0 0 392.7 39.525 A 27.842 27.842 0 0 0 394.317 33.759 A 10.507 10.507 0 0 0 394.425 32.325 A 40.061 40.061 0 0 0 387.88 36.03 A 18.461 18.461 0 0 0 386.25 37.35 Q 386.55 39.3 387.263 41.438 Q 387.975 43.575 389.025 45.9 Z M 390.225 32.7 L 394.65 30.15 Q 394.725 29.55 394.763 28.95 Q 394.8 28.35 394.8 27.825 A 6.983 6.983 0 0 0 394.098 24.188 A 1.589 1.589 0 0 0 392.7 23.4 A 4.514 4.514 0 0 0 389.383 25.669 A 13.589 13.589 0 0 0 389.025 26.175 Q 387.525 28.35 386.813 30.563 Q 386.1 32.775 386.1 34.875 Q 386.1 35.475 386.175 35.7 Q 386.925 34.95 387.938 34.2 Q 388.95 33.45 390.225 32.7 Z M 382.425 49.05 Q 385.2 49.05 387.75 47.025 Q 386.475 43.875 386.175 42.9 Q 385.8 41.625 385.575 40.575 Q 385.35 39.525 385.2 38.55 A 31.761 31.761 0 0 0 381.923 43.664 A 7.738 7.738 0 0 0 381 46.875 Q 381 49.05 382.425 49.05 Z M 186.15 50.175 A 5.893 5.893 0 0 0 189.926 48.175 A 18.141 18.141 0 0 0 191.025 47.025 A 4.172 4.172 0 0 1 188.135 44.278 A 18.911 18.911 0 0 1 186.975 41.1 Q 184.5 45.225 184.5 47.55 A 2.066 2.066 0 0 0 186.03 50.171 A 1.964 1.964 0 0 0 186.15 50.175 Z M 362.025 50.175 A 5.893 5.893 0 0 0 365.801 48.175 A 18.141 18.141 0 0 0 366.9 47.025 A 4.172 4.172 0 0 1 364.01 44.278 A 18.911 18.911 0 0 1 362.85 41.1 Q 360.375 45.225 360.375 47.55 A 2.066 2.066 0 0 0 361.905 50.171 A 1.964 1.964 0 0 0 362.025 50.175 Z M 80.175 50.325 Q 83.175 50.325 84.15 47.4 A 17.097 17.097 0 0 1 76.753 46.008 A 9.452 9.452 0 0 1 75 44.925 Q 75.15 46.575 76.8 48.525 Q 78.525 50.325 80.175 50.325 Z M 248.25 50.325 Q 251.25 50.325 252.225 47.4 A 17.097 17.097 0 0 1 244.828 46.008 A 9.452 9.452 0 0 1 243.075 44.925 Q 243.225 46.575 244.875 48.525 Q 246.6 50.325 248.25 50.325 Z M 170.175 39.9 Q 170.7 38.4 171.338 36.825 Q 171.975 35.25 172.725 33.6 Q 170.85 34.05 168.938 34.425 Q 167.025 34.8 165.15 35.1 A 10.487 10.487 0 0 1 169.982 39.471 A 6.386 6.386 0 0 1 170.175 39.9 Z M 114.6 49.8 L 113.025 51.075 Q 113.4 51.6 113.775 52.65 L 114.113 51.3 Q 114.3 50.55 114.6 49.8 Z M 205.575 29.625 L 206.325 31.35 L 207 28.875 Q 206.625 29.175 205.575 29.625 Z"/></g></svg>