<svg width="597.254" height="69.763" viewBox="0 0 597.254 69.763" xmlns="http://www.w3.org/2000/svg"><g id="svgGroup" stroke-linecap="round" fill-rule="nonzero" font-size="9pt" stroke="#ffffff" stroke-width="0.5" fill="#000000" style="stroke:#ffffff;stroke-width:0.5;fill:#000000"><path d="M 0 54.016 L 0 1.501 L 38.269 1.501 L 38.269 9.009 L 7.507 9.009 L 7.507 24.023 L 33.765 24.023 L 33.765 31.531 L 7.507 31.531 L 7.507 46.509 L 38.269 46.509 L 38.269 54.016 L 0 54.016 Z M 170.288 22.229 L 170.288 54.016 L 163.074 54.016 L 163.074 22.229 L 142.969 22.229 L 142.969 54.016 L 135.791 54.016 L 135.791 0 L 142.969 0 L 142.969 21.899 A 7.215 7.215 0 0 1 143.628 19.208 A 7.251 7.251 0 0 1 145.184 17.01 A 7.176 7.176 0 0 1 147.437 15.546 Q 148.718 15.015 150.183 15.015 L 163.074 15.015 A 7.054 7.054 0 0 1 165.894 15.582 A 7.261 7.261 0 0 1 168.182 17.12 A 7.261 7.261 0 0 1 169.72 19.409 A 7.054 7.054 0 0 1 170.288 22.229 Z M 562.756 45.3 L 562.756 22.229 A 7.054 7.054 0 0 1 563.324 19.409 A 7.261 7.261 0 0 1 564.862 17.12 A 7.261 7.261 0 0 1 567.151 15.582 Q 568.469 15.015 569.934 15.015 L 582.861 15.015 A 7.01 7.01 0 0 1 585.571 15.546 Q 586.853 16.077 587.823 17.01 Q 588.794 17.944 589.398 19.208 A 6.558 6.558 0 0 1 590.039 21.899 L 590.039 15.015 L 597.253 15.015 L 597.253 62.549 A 7.054 7.054 0 0 1 596.686 65.369 A 7.261 7.261 0 0 1 595.148 67.657 A 7.261 7.261 0 0 1 592.859 69.196 A 7.054 7.054 0 0 1 590.039 69.763 L 567.261 69.763 L 567.261 62.549 L 590.039 62.549 L 590.039 52.515 L 569.934 52.515 A 6.964 6.964 0 0 1 567.151 51.947 A 7.261 7.261 0 0 1 564.862 50.409 A 7.261 7.261 0 0 1 563.324 48.12 A 7.054 7.054 0 0 1 562.756 45.3 Z M 569.934 45.3 L 590.039 45.3 L 590.039 22.229 L 569.934 22.229 L 569.934 45.3 Z M 48.01 46.802 L 72.327 46.802 L 72.327 37.756 L 55.225 37.756 A 7.054 7.054 0 0 1 52.405 37.189 A 7.261 7.261 0 0 1 50.116 35.651 A 7.261 7.261 0 0 1 48.578 33.362 A 7.054 7.054 0 0 1 48.01 30.542 L 48.01 22.229 A 7.054 7.054 0 0 1 48.578 19.409 A 7.261 7.261 0 0 1 50.116 17.12 A 7.261 7.261 0 0 1 52.405 15.582 A 7.054 7.054 0 0 1 55.225 15.015 L 78.04 15.015 L 78.04 22.229 L 55.225 22.229 L 55.225 30.542 L 72.327 30.542 A 6.924 6.924 0 0 1 75.128 31.11 Q 76.428 31.677 77.417 32.648 Q 78.406 33.618 78.973 34.937 A 7.054 7.054 0 0 1 79.541 37.756 L 79.541 46.802 A 7.054 7.054 0 0 1 78.973 49.622 Q 78.406 50.94 77.417 51.91 Q 76.428 52.881 75.128 53.448 A 6.924 6.924 0 0 1 72.327 54.016 L 48.01 54.016 L 48.01 46.802 Z M 379.834 46.802 L 404.15 46.802 L 404.15 37.756 L 387.048 37.756 A 7.054 7.054 0 0 1 384.229 37.189 A 7.261 7.261 0 0 1 381.94 35.651 A 7.261 7.261 0 0 1 380.402 33.362 A 7.054 7.054 0 0 1 379.834 30.542 L 379.834 22.229 A 7.054 7.054 0 0 1 380.402 19.409 A 7.261 7.261 0 0 1 381.94 17.12 A 7.261 7.261 0 0 1 384.229 15.582 A 7.054 7.054 0 0 1 387.048 15.015 L 409.863 15.015 L 409.863 22.229 L 387.048 22.229 L 387.048 30.542 L 404.15 30.542 A 6.924 6.924 0 0 1 406.952 31.11 Q 408.252 31.677 409.241 32.648 Q 410.229 33.618 410.797 34.937 A 7.054 7.054 0 0 1 411.365 37.756 L 411.365 46.802 A 7.054 7.054 0 0 1 410.797 49.622 Q 410.229 50.94 409.241 51.91 Q 408.252 52.881 406.952 53.448 A 6.924 6.924 0 0 1 404.15 54.016 L 379.834 54.016 L 379.834 46.802 Z M 346.838 22.229 L 346.838 54.016 L 339.624 54.016 L 339.624 22.229 L 319.519 22.229 L 319.519 54.016 L 312.341 54.016 L 312.341 15.015 L 319.519 15.015 L 319.519 21.899 A 7.215 7.215 0 0 1 320.178 19.208 A 7.251 7.251 0 0 1 321.735 17.01 A 7.176 7.176 0 0 1 323.987 15.546 Q 325.269 15.015 326.733 15.015 L 339.624 15.015 A 7.054 7.054 0 0 1 342.444 15.582 A 7.261 7.261 0 0 1 344.733 17.12 A 7.261 7.261 0 0 1 346.271 19.409 A 7.054 7.054 0 0 1 346.838 22.229 Z M 116.565 22.229 L 97.961 22.229 L 97.961 46.802 L 116.565 46.802 L 116.565 40.21 L 123.779 40.21 L 123.779 46.802 A 7.054 7.054 0 0 1 123.212 49.622 A 7.261 7.261 0 0 1 121.674 51.91 A 7.261 7.261 0 0 1 119.385 53.448 A 7.054 7.054 0 0 1 116.565 54.016 L 97.961 54.016 A 6.964 6.964 0 0 1 95.178 53.448 A 7.261 7.261 0 0 1 92.889 51.91 A 7.261 7.261 0 0 1 91.351 49.622 A 7.054 7.054 0 0 1 90.784 46.802 L 90.784 22.229 A 7.054 7.054 0 0 1 91.351 19.409 A 7.261 7.261 0 0 1 92.889 17.12 A 7.261 7.261 0 0 1 95.178 15.582 Q 96.497 15.015 97.961 15.015 L 116.565 15.015 A 7.054 7.054 0 0 1 119.385 15.582 A 7.261 7.261 0 0 1 121.674 17.12 A 7.261 7.261 0 0 1 123.212 19.409 A 7.054 7.054 0 0 1 123.779 22.229 L 123.779 28.821 L 116.565 28.821 L 116.565 22.229 Z M 182.3 46.802 L 182.3 36.987 A 6.924 6.924 0 0 1 182.867 34.186 Q 183.435 32.886 184.406 31.897 Q 185.376 30.908 186.694 30.341 Q 188.013 29.773 189.478 29.773 L 208.081 29.773 L 208.081 22.229 L 184.534 22.229 L 184.534 15.015 L 208.081 15.015 A 7.054 7.054 0 0 1 210.901 15.582 A 7.261 7.261 0 0 1 213.19 17.12 A 7.261 7.261 0 0 1 214.728 19.409 A 7.054 7.054 0 0 1 215.295 22.229 L 215.295 54.016 L 208.081 54.016 L 208.081 47.424 A 6.732 6.732 0 0 1 207.349 49.988 A 7.55 7.55 0 0 1 205.756 52.094 A 7.367 7.367 0 0 1 203.54 53.503 A 6.857 6.857 0 0 1 200.903 54.016 L 189.478 54.016 A 6.964 6.964 0 0 1 186.694 53.448 A 7.261 7.261 0 0 1 184.406 51.91 A 7.261 7.261 0 0 1 182.867 49.622 A 7.054 7.054 0 0 1 182.3 46.802 Z M 189.478 36.987 L 189.478 46.802 L 208.081 46.802 L 208.081 36.987 L 189.478 36.987 Z M 225.037 22.229 L 225.037 15.015 L 234.558 15.015 L 234.558 3.003 L 241.772 3.003 L 241.772 15.015 L 254.59 15.015 L 254.59 22.229 L 241.772 22.229 L 241.772 46.802 L 254.59 46.802 L 254.59 54.016 L 241.772 54.016 A 6.964 6.964 0 0 1 238.989 53.448 Q 237.671 52.881 236.682 51.91 Q 235.693 50.94 235.126 49.622 A 7.054 7.054 0 0 1 234.558 46.802 L 234.558 22.229 L 225.037 22.229 Z M 487.317 38.635 L 487.317 41.272 A 14.982 14.982 0 0 1 485.543 49.007 Q 483.031 53.229 476.961 53.892 A 21.994 21.994 0 0 1 474.573 54.016 L 445.825 54.016 L 445.825 1.501 L 473.071 1.501 Q 485.815 1.501 485.815 14.282 L 485.815 15.234 A 16.096 16.096 0 0 1 484.406 22.467 A 8.853 8.853 0 0 1 480.029 26.624 Q 481.677 27.136 483.032 28.088 A 8.636 8.636 0 0 1 485.339 30.524 A 11.831 11.831 0 0 1 486.804 34.021 A 18.779 18.779 0 0 1 487.317 38.635 Z M 474.353 31.128 L 453.186 31.128 L 453.186 46.655 L 474.353 46.655 Q 477.319 46.655 478.638 45.264 A 6.163 6.163 0 0 0 479.956 40.906 L 479.956 36.841 Q 479.956 33.838 478.638 32.483 A 5.781 5.781 0 0 0 474.353 31.128 Z M 472.852 8.862 L 453.186 8.862 L 453.186 23.804 L 473.364 23.804 A 5.21 5.21 0 0 0 477.264 22.321 Q 478.455 20.947 478.455 18.091 L 478.455 14.648 Q 478.455 11.646 477.136 10.254 A 5.685 5.685 0 0 0 472.852 8.862 Z M 300.33 22.229 L 300.33 46.802 A 7.054 7.054 0 0 1 299.762 49.622 A 7.261 7.261 0 0 1 298.224 51.91 A 7.319 7.319 0 0 1 295.953 53.448 A 6.924 6.924 0 0 1 293.152 54.016 L 273.779 54.016 A 6.964 6.964 0 0 1 270.996 53.448 A 7.261 7.261 0 0 1 268.707 51.91 A 7.261 7.261 0 0 1 267.169 49.622 A 7.054 7.054 0 0 1 266.602 46.802 L 266.602 22.229 A 7.054 7.054 0 0 1 267.169 19.409 A 7.261 7.261 0 0 1 268.707 17.12 A 7.261 7.261 0 0 1 270.996 15.582 Q 272.314 15.015 273.779 15.015 L 293.152 15.015 A 6.924 6.924 0 0 1 295.953 15.582 Q 297.253 16.15 298.224 17.12 A 7.261 7.261 0 0 1 299.762 19.409 A 7.054 7.054 0 0 1 300.33 22.229 Z M 293.152 22.229 L 273.779 22.229 L 273.779 46.802 L 293.152 46.802 L 293.152 22.229 Z M 550.745 22.229 L 550.745 46.802 A 7.054 7.054 0 0 1 550.177 49.622 A 7.261 7.261 0 0 1 548.639 51.91 A 7.319 7.319 0 0 1 546.368 53.448 A 6.924 6.924 0 0 1 543.567 54.016 L 524.194 54.016 A 6.964 6.964 0 0 1 521.411 53.448 A 7.261 7.261 0 0 1 519.122 51.91 A 7.261 7.261 0 0 1 517.584 49.622 A 7.054 7.054 0 0 1 517.017 46.802 L 517.017 22.229 A 7.054 7.054 0 0 1 517.584 19.409 A 7.261 7.261 0 0 1 519.122 17.12 A 7.261 7.261 0 0 1 521.411 15.582 Q 522.729 15.015 524.194 15.015 L 543.567 15.015 A 6.924 6.924 0 0 1 546.368 15.582 Q 547.668 16.15 548.639 17.12 A 7.261 7.261 0 0 1 550.177 19.409 A 7.054 7.054 0 0 1 550.745 22.229 Z M 543.567 22.229 L 524.194 22.229 L 524.194 46.802 L 543.567 46.802 L 543.567 22.229 Z M 497.827 0 L 505.005 0 L 505.005 54.016 L 497.827 54.016 L 497.827 0 Z M 368.591 9.448 L 366.211 26.111 L 361.23 26.111 L 358.85 9.448 L 358.85 1.501 L 368.591 1.501 L 368.591 9.448 Z"/></g></svg>